<?xml version="1.0" standalone="no"?>
<!DOCTYPE svg PUBLIC "-//W3C//DTD SVG 20010904//EN"
 "http://www.w3.org/TR/2001/REC-SVG-20010904/DTD/svg10.dtd">
<svg version="1.0" xmlns="http://www.w3.org/2000/svg"
 width="2052.000000pt" height="2052.000000pt" viewBox="0 0 2052.000000 2052.000000"
 preserveAspectRatio="xMidYMid meet">
<metadata>
Created by potrace 1.14, written by Peter Selinger 2001-2017
</metadata>
<g transform="translate(0.000000,2052.000000) scale(0.100000,-0.100000)"
fill="#000000" stroke="none">
<path d="M10268 19075 c-2 -1 -115 -5 -253 -9 -251 -7 -339 -11 -450 -21 -95
-9 -165 -15 -230 -20 -33 -3 -71 -7 -85 -10 -14 -2 -50 -7 -80 -10 -30 -4 -82
-10 -115 -15 -33 -5 -80 -12 -105 -15 -25 -3 -56 -8 -70 -10 -14 -3 -41 -7
-60 -10 -19 -3 -73 -13 -120 -21 -47 -9 -96 -18 -110 -20 -44 -8 -89 -17 -190
-39 -41 -9 -86 -19 -100 -21 -43 -9 -331 -82 -425 -109 -49 -14 -101 -28 -114
-31 -13 -3 -39 -11 -57 -19 -19 -8 -34 -12 -34 -10 0 15 -702 -242 -875 -320
-27 -12 -79 -35 -115 -50 -36 -15 -109 -49 -162 -75 -54 -27 -98 -46 -98 -43
0 3 -6 1 -12 -5 -7 -5 -92 -50 -188 -99 -697 -358 -1377 -835 -1949 -1368 -97
-90 -398 -391 -476 -475 -80 -87 -196 -217 -231 -260 -16 -19 -34 -41 -41 -48
-7 -7 -29 -34 -50 -60 -21 -26 -40 -49 -44 -52 -14 -13 -168 -212 -256 -331
-363 -491 -633 -945 -912 -1531 -28 -60 -51 -110 -51 -113 0 -2 -12 -30 -26
-62 -50 -110 -141 -329 -155 -373 -4 -14 -17 -50 -29 -80 -54 -138 -205 -595
-224 -680 -2 -8 -21 -78 -41 -154 -20 -77 -39 -150 -41 -163 -2 -12 -9 -34
-14 -48 -5 -14 -7 -25 -5 -25 2 0 1 -10 -4 -23 -5 -13 -12 -41 -15 -61 -4 -21
-8 -41 -10 -45 -2 -3 -7 -22 -10 -41 -3 -19 -10 -60 -16 -90 -6 -30 -13 -66
-16 -80 -2 -14 -9 -47 -15 -75 -5 -27 -12 -66 -15 -85 -3 -19 -7 -46 -10 -60
-3 -22 -10 -64 -29 -180 -2 -14 -6 -45 -9 -70 -3 -25 -8 -63 -11 -85 -22 -175
-31 -268 -40 -400 -3 -44 -8 -99 -10 -123 -27 -263 -22 -997 10 -1327 2 -27 7
-81 10 -120 3 -38 8 -79 10 -90 2 -11 7 -54 11 -95 3 -41 8 -81 9 -90 2 -8 6
-40 10 -70 3 -30 10 -77 15 -105 5 -27 12 -67 15 -87 3 -21 7 -55 10 -75 6
-36 9 -56 20 -113 3 -14 8 -38 10 -55 3 -16 8 -37 10 -45 2 -8 6 -32 9 -52 11
-72 94 -425 140 -593 1 -5 8 -30 15 -55 52 -195 218 -692 273 -820 6 -14 14
-34 19 -45 78 -192 139 -338 177 -419 73 -160 272 -548 357 -696 43 -74 83
-145 89 -157 6 -13 14 -23 19 -23 4 0 7 -4 7 -9 0 -13 142 -237 268 -421 137
-202 368 -509 500 -665 9 -11 40 -47 67 -80 28 -33 52 -62 55 -65 3 -3 39 -43
80 -89 267 -301 705 -724 949 -917 13 -10 40 -33 60 -49 93 -79 253 -202 386
-298 295 -212 627 -425 885 -567 63 -34 139 -76 168 -92 251 -138 658 -323
992 -451 197 -76 528 -187 665 -223 6 -1 44 -12 85 -24 188 -54 520 -133 695
-166 71 -13 132 -24 165 -31 14 -3 34 -6 45 -8 11 -1 99 -14 195 -29 170 -25
226 -32 320 -41 25 -3 68 -7 95 -10 155 -16 194 -19 410 -32 173 -10 732 -10
920 0 195 11 334 21 420 31 17 2 62 7 100 11 39 3 81 8 95 10 14 2 48 6 75 10
28 3 64 8 80 11 92 13 224 34 250 39 57 10 100 17 130 22 171 27 596 128 844
200 310 89 784 257 986 348 17 8 98 44 180 80 194 86 531 257 714 362 79 46
145 83 147 83 10 0 504 316 514 329 3 3 25 19 50 35 119 77 531 395 675 521
17 14 57 50 90 78 32 29 69 61 81 72 152 139 212 196 326 309 105 104 268 275
353 370 29 32 195 224 211 245 10 13 24 28 29 35 91 104 312 396 438 578 90
130 227 337 227 344 0 2 16 27 35 54 19 27 35 52 35 55 0 2 18 35 41 71 151
247 327 589 499 969 30 67 157 378 165 405 4 14 13 39 20 55 7 17 23 59 35 95
12 36 26 74 30 85 13 30 99 299 127 395 35 121 55 193 58 210 2 8 14 58 29
110 14 52 28 106 30 120 3 14 10 43 16 65 5 22 12 56 16 75 3 19 9 49 14 65 9
32 56 273 65 340 4 22 8 47 10 55 3 8 7 35 10 60 3 25 8 56 10 70 3 14 8 43
11 65 7 58 24 185 29 221 9 61 18 165 30 319 4 44 8 98 10 120 23 249 23 886
0 1205 -5 75 -15 197 -20 245 -8 79 -16 151 -20 185 -2 19 -7 56 -10 82 -5 45
-8 68 -20 153 -6 40 -7 50 -25 155 -5 30 -12 73 -15 94 -3 21 -7 48 -10 60 -3
12 -7 32 -9 46 -50 306 -192 846 -321 1220 -31 91 -58 170 -59 175 -4 13 -16
45 -26 70 -5 11 -39 96 -75 189 -144 365 -392 874 -557 1144 -21 34 -38 67
-38 72 0 6 -4 10 -10 10 -5 0 -10 5 -10 10 0 17 -189 314 -331 520 -50 73
-329 446 -367 492 -11 13 -57 68 -103 123 -46 55 -86 102 -89 105 -3 3 -34 39
-70 80 -235 270 -654 680 -914 895 -26 22 -53 45 -59 50 -12 10 -108 89 -163
133 -67 55 -376 284 -462 343 -120 82 -116 79 -187 125 -33 21 -61 42 -63 46
-2 5 -7 8 -12 8 -4 0 -61 33 -127 74 -668 415 -1521 789 -2233 981 -47 12
-121 32 -165 44 -84 23 -158 40 -405 96 -31 7 -286 55 -320 60 -19 3 -60 10
-90 15 -30 5 -71 11 -90 14 -19 3 -46 8 -60 10 -32 6 -122 16 -180 22 -25 2
-58 6 -75 9 -16 2 -57 7 -90 10 -33 3 -78 8 -100 10 -22 2 -76 7 -120 10 -44
3 -105 8 -135 10 -30 3 -158 7 -285 10 -126 3 -238 7 -247 9 -9 2 -18 3 -20 1z
m-6137 -13062 c13 -16 12 -17 -3 -4 -10 7 -18 15 -18 17 0 8 8 3 21 -13z m110
-150 c13 -16 12 -17 -3 -4 -10 7 -18 15 -18 17 0 8 8 3 21 -13z m60 -80 c13
-16 12 -17 -3 -4 -10 7 -18 15 -18 17 0 8 8 3 21 -13z m74 -93 c10 -11 16 -20
13 -20 -3 0 -13 9 -23 20 -10 11 -16 20 -13 20 3 0 13 -9 23 -20z m76 -97 c13
-16 12 -17 -3 -4 -10 7 -18 15 -18 17 0 8 8 3 21 -13z m60 -70 c13 -16 12 -17
-3 -4 -10 7 -18 15 -18 17 0 8 8 3 21 -13z m39 -48 c13 -14 21 -25 18 -25 -2
0 -15 11 -28 25 -13 14 -21 25 -18 25 2 0 15 -11 28 -25z m91 -102 c13 -16 12
-17 -3 -4 -10 7 -18 15 -18 17 0 8 8 3 21 -13z m50 -60 c13 -16 12 -17 -3 -4
-10 7 -18 15 -18 17 0 8 8 3 21 -13z m180 -190 c13 -16 12 -17 -3 -4 -10 7
-18 15 -18 17 0 8 8 3 21 -13z m49 -48 c13 -14 21 -25 18 -25 -2 0 -15 11 -28
25 -13 14 -21 25 -18 25 2 0 15 -11 28 -25z m115 -115 c10 -11 16 -20 13 -20
-3 0 -13 9 -23 20 -10 11 -16 20 -13 20 3 0 13 -9 23 -20z m46 -47 c13 -16 12
-17 -3 -4 -17 13 -22 21 -14 21 2 0 10 -8 17 -17z m40 -40 c13 -16 12 -17 -3
-4 -17 13 -22 21 -14 21 2 0 10 -8 17 -17z m199 -178 c13 -14 21 -25 18 -25
-2 0 -15 11 -28 25 -13 14 -21 25 -18 25 2 0 15 -11 28 -25z m115 -95 c10 -11
16 -20 13 -20 -3 0 -13 9 -23 20 -10 11 -16 20 -13 20 3 0 13 -9 23 -20z m166
-137 c13 -16 12 -17 -3 -4 -10 7 -18 15 -18 17 0 8 8 3 21 -13z m140 -110 c13
-16 12 -17 -3 -4 -10 7 -18 15 -18 17 0 8 8 3 21 -13z m74 -53 c3 -6 -1 -7 -9
-4 -18 7 -21 14 -7 14 6 0 13 -4 16 -10z m266 -187 c13 -16 12 -17 -3 -4 -10
7 -18 15 -18 17 0 8 8 3 21 -13z m244 -161 c-3 -3 -11 0 -18 7 -9 10 -8 11 6
5 10 -3 15 -9 12 -12z m2762 -1008 c-3 -3 -12 -4 -19 -1 -8 3 -5 6 6 6 11 1
17 -2 13 -5z"/>
</g>
</svg>
